<svg width="386" height="334" viewBox="0 0 386 334" fill="none" xmlns="http://www.w3.org/2000/svg">
<g clip-path="url(#clip0_47_599)">
<path d="M302.546 1.42969V20.4053C320.208 22.8453 335.814 28.5023 347.493 38.417C359.279 48.4228 367.025 62.7305 368.871 82.3232L368.917 82.8096L368.432 82.8662L310.853 89.6406L310.314 89.7031L310.296 89.1611C309.875 77.3883 306.586 69.6355 301.286 64.8174C295.981 59.9945 288.573 58.0322 279.748 58.0322C271.33 58.0322 264.595 59.5776 259.981 62.5732C255.396 65.5505 252.87 69.9792 252.87 75.8779C252.87 78.6549 253.73 80.9204 255.371 82.8477C257.023 84.7877 259.488 86.4081 262.733 87.8389C269.235 90.7053 278.701 92.743 290.572 95.1455C314.272 99.942 335.321 105.247 350.442 115.15C358.013 120.109 364.11 126.227 368.31 134.017C372.511 141.806 374.801 151.241 374.801 162.81C374.801 184.138 366.115 198.894 352.65 208.726C339.319 218.46 321.336 223.341 302.546 225.075V243.186H264.289V224.784C243.528 222.479 225.313 216.19 212.043 205.179C198.662 194.076 190.346 178.205 189.494 156.902L189.475 156.428L189.949 156.385L248.938 151.021L249.489 150.972L249.483 151.525C249.343 164.534 253.465 173.197 259.959 178.62C266.47 184.057 275.441 186.301 285.111 186.301C293.822 186.301 301.478 184.893 306.939 181.609C312.365 178.347 315.658 173.216 315.658 165.632C315.658 162.161 314.507 159.5 312.413 157.355C310.303 155.194 307.21 153.532 303.289 152.132C295.918 149.499 285.846 147.859 274.342 145.446L272.022 144.952C249.018 140.013 229.662 134.281 216.057 124.513C202.408 114.712 194.574 100.869 194.574 79.8291C194.574 61.3186 202.557 47.2057 215.336 37.2744C227.998 27.4339 245.352 21.7113 264.289 19.8242V1.42969H302.546Z" stroke="url(#paint0_linear_47_599)" stroke-opacity="0.5"/>
<path d="M24.6486 82.2169L80.0765 65.2709L136.062 80.2721L80.6341 97.2182L24.6486 82.2169Z" fill="#FFF9F5"/>
<path d="M80.6341 97.2182L24.6486 82.2169L24.6486 415.255L80.6341 415.04L80.6341 97.2182Z" fill="#555555"/>
<path d="M136.062 80.2721L80.6341 97.2182L80.6341 415.04L136.062 414.828L136.062 80.2721Z" fill="#666666"/>
<path d="M136.062 80.2721L80.6341 97.2182L80.6341 415.04L136.062 414.828L136.062 80.2721Z" fill="url(#paint1_linear_47_599)"/>
<path d="M111.575 141.131L167.003 124.185L222.989 139.186L167.561 156.132L111.575 141.131Z" fill="#FFF9F5"/>
<path d="M167.561 156.132L111.575 141.131L111.575 474.169L167.561 473.954L167.561 156.132Z" fill="#555555"/>
<path d="M222.989 139.186L167.561 156.132L167.561 473.954L222.989 473.741L222.989 139.186Z" fill="#666666"/>
<path d="M222.989 139.186L167.561 156.132L167.561 473.954L222.989 473.741L222.989 139.186Z" fill="url(#paint2_linear_47_599)"/>
<path d="M198.502 208.708L253.93 191.762L309.916 206.763L254.488 223.709L198.502 208.708Z" fill="#FFF9F5"/>
<path d="M254.488 223.709L198.502 208.708L198.502 541.746L254.488 541.531L254.488 223.709Z" fill="#555555"/>
<path d="M309.916 206.763L254.488 223.709L254.488 541.531L309.916 541.319L309.916 206.763Z" fill="#666666"/>
<path d="M309.916 206.763L254.488 223.709L254.488 541.531L309.916 541.319L309.916 206.763Z" fill="url(#paint3_linear_47_599)"/>
<path d="M21.1608 22.2987C23.0631 12.0388 36.3288 10.8151 44.8479 12.9769C71.7775 20.9461 76.879 53.4939 76.6223 78.4544C76.6223 80.2858 79.6746 80.2858 79.6746 78.4544C79.0513 65.2213 90.8989 55.2365 103.669 55.6275C116.383 55.4529 128.764 61.4225 138.274 69.9425C157.679 87.3342 165.248 114.468 165.094 140.434C165.094 143.419 170.069 143.419 170.069 140.434C170.001 134.179 172.719 128.367 177.761 125.005C196.274 114.002 221.322 126.913 234.08 143.943C247.72 161.527 252.844 184.612 252.999 206.989C252.999 209.312 256.871 209.312 256.871 206.989C258.308 187.061 287.544 182.501 303.753 192.363C321.491 202.043 330.549 222.433 334.316 242.097C336.137 251.47 336.955 261.008 337.127 270.73C337.288 261.007 336.788 251.425 335.251 241.93C332.054 222.051 323.591 200.841 305.042 190.062C288.206 179.555 256.157 181.811 252.999 206.989H256.871C257.079 184.078 252.188 159.944 237.819 141.065C224.205 123.019 198.014 107.72 174.934 120.881C168.508 125.085 164.92 132.985 165.094 140.434C165.094 143.419 170.069 143.419 170.069 140.434C170.166 113.609 162.131 84.9858 141.186 66.6488C130.909 57.6853 117.604 51.4003 103.559 51.8091C89.4974 51.3386 75.3517 63.9018 76.6223 78.4544H79.6746C79.418 53.1484 73.2684 19.4715 45.0666 12.0525C36.2032 10.0837 22.7149 11.8736 21.1608 22.2987Z" fill="url(#paint4_linear_47_599)"/>
<path d="M356.683 232.786L344.991 212.536L368.375 212.536L356.683 232.786Z" fill="#FFF9F5"/>
<path d="M356.683 245.787L344.991 225.537L368.375 225.537L356.683 245.787Z" fill="#E76001"/>
<path d="M356.683 219.786L344.991 199.535L368.375 199.535L356.683 219.786Z" fill="#FFF9F5"/>
</g>
<defs>
<linearGradient id="paint0_linear_47_599" x1="327.159" y1="69.0817" x2="242.516" y2="148.543" gradientUnits="userSpaceOnUse">
<stop stop-color="#FFF9F5"/>
<stop offset="1" stop-color="#FFF9F5" stop-opacity="0"/>
</linearGradient>
<linearGradient id="paint1_linear_47_599" x1="157.721" y1="138.576" x2="209.595" y2="312.816" gradientUnits="userSpaceOnUse">
<stop stop-color="#666666"/>
<stop offset="1" stop-color="#292929"/>
</linearGradient>
<linearGradient id="paint2_linear_47_599" x1="244.648" y1="197.49" x2="296.522" y2="371.73" gradientUnits="userSpaceOnUse">
<stop stop-color="#666666"/>
<stop offset="1" stop-color="#292929"/>
</linearGradient>
<linearGradient id="paint3_linear_47_599" x1="331.575" y1="265.067" x2="383.448" y2="439.307" gradientUnits="userSpaceOnUse">
<stop stop-color="#666666"/>
<stop offset="1" stop-color="#292929"/>
</linearGradient>
<linearGradient id="paint4_linear_47_599" x1="41.6524" y1="16.0433" x2="299.971" y2="247.765" gradientUnits="userSpaceOnUse">
<stop stop-color="#E75F00" stop-opacity="0"/>
<stop offset="0.105769" stop-color="#E75F00"/>
<stop offset="0.879808" stop-color="#E75F00"/>
<stop offset="1" stop-color="#E75F00" stop-opacity="0"/>
</linearGradient>
<clipPath id="clip0_47_599">
<rect width="386" height="334" fill="white"/>
</clipPath>
</defs>
</svg>
