<svg width="390" height="334" viewBox="0 0 390 334" fill="none" xmlns="http://www.w3.org/2000/svg">
<path d="M370.543 29.4078L331.731 75.5425V443.282H370.543V29.4078Z" fill="#D9D9D9"/>
<path d="M370.543 29.4078L331.731 75.5425V443.282H370.543V29.4078Z" fill="url(#paint0_linear_47_612)"/>
<path d="M331.731 75.5425L292.919 93.2342V443.282H331.731V75.5425Z" fill="#D9D9D9"/>
<path d="M331.731 75.5425L292.919 93.2342V443.282H331.731V75.5425Z" fill="url(#paint1_linear_47_612)"/>
<path d="M292.919 93.2342L254.107 122.886V443.282H292.919V93.2342Z" fill="#D9D9D9"/>
<path d="M292.919 93.2342L254.107 122.886V443.282H292.919V93.2342Z" fill="url(#paint2_linear_47_612)"/>
<path d="M254.107 122.886L215.295 155.34V443.282H254.107V122.886Z" fill="#D9D9D9"/>
<path d="M254.107 122.886L215.295 155.34V443.282H254.107V122.886Z" fill="url(#paint3_linear_47_612)"/>
<path d="M215.295 155.34L176.483 177.946V443.282H215.295V155.34Z" fill="#D9D9D9"/>
<path d="M215.295 155.34L176.483 177.946V443.282H215.295V155.34Z" fill="url(#paint4_linear_47_612)"/>
<path d="M176.483 177.946L137.671 145.892V443.282H176.483V177.946Z" fill="#D9D9D9"/>
<path d="M176.483 177.946L137.671 145.892V443.282H176.483V177.946Z" fill="url(#paint5_linear_47_612)"/>
<path d="M137.671 145.892L98.8588 200.561V443.282H137.671V145.892Z" fill="#D9D9D9"/>
<path d="M137.671 145.892L98.8588 200.561V443.282H137.671V145.892Z" fill="url(#paint6_linear_47_612)"/>
<path d="M98.8588 200.561L60.0468 169.279L60.0468 443.282H98.8588V200.561Z" fill="#D9D9D9"/>
<path d="M98.8588 200.561L60.0468 169.279L60.0468 443.282H98.8588V200.561Z" fill="url(#paint7_linear_47_612)"/>
<path d="M60.0468 169.279L13.1571 200.153L13.1571 443.282H60.0468L60.0468 169.279Z" fill="#D9D9D9"/>
<path d="M60.0468 169.279L13.1571 200.153L13.1571 443.282H60.0468L60.0468 169.279Z" fill="url(#paint8_linear_47_612)"/>
<g filter="url(#filter0_d_47_612)">
<rect x="331.668" y="74.739" width="0.949226" height="264.319" fill="url(#paint9_linear_47_612)" fill-opacity="0.39" shape-rendering="crispEdges"/>
</g>
<g filter="url(#filter1_d_47_612)">
<rect x="292.803" y="93.5439" width="0.949226" height="245.514" fill="url(#paint10_linear_47_612)" fill-opacity="0.39" shape-rendering="crispEdges"/>
</g>
<g filter="url(#filter2_d_47_612)">
<rect x="253.746" y="125.455" width="0.949226" height="213.603" fill="url(#paint11_linear_47_612)" fill-opacity="0.39" shape-rendering="crispEdges"/>
</g>
<g filter="url(#filter3_d_47_612)">
<rect x="214.876" y="158.384" width="0.949226" height="180.674" fill="url(#paint12_linear_47_612)" fill-opacity="0.39" shape-rendering="crispEdges"/>
</g>
<g filter="url(#filter4_d_47_612)">
<rect x="176.011" y="182.776" width="0.949226" height="156.281" fill="url(#paint13_linear_47_612)" fill-opacity="0.39" shape-rendering="crispEdges"/>
</g>
<g filter="url(#filter5_d_47_612)">
<rect x="136.979" y="148.779" width="0.949226" height="190.279" fill="url(#paint14_linear_47_612)" fill-opacity="0.39" shape-rendering="crispEdges"/>
</g>
<g filter="url(#filter6_d_47_612)">
<rect x="98.2825" y="206.465" width="0.949226" height="132.593" fill="url(#paint15_linear_47_612)" fill-opacity="0.39" shape-rendering="crispEdges"/>
</g>
<g filter="url(#filter7_d_47_612)">
<rect x="59.6967" y="173.653" width="0.949226" height="165.404" fill="url(#paint16_linear_47_612)" fill-opacity="0.39" shape-rendering="crispEdges"/>
</g>
<path d="M13.1571 200.153L60.0468 169.279L98.8588 200.561L137.671 145.892L176.483 177.946L215.295 155.34L254.107 122.886L293.53 92.8743L331.731 74.9668L370.652 29.4578" stroke="#E76001" stroke-width="0.949226"/>
<rect x="56.7179" y="166.06" width="6.59047" height="6.59047" fill="#E76001"/>
<rect x="10.386" y="195.19" width="6.59047" height="6.59047" fill="#E76001"/>
<rect x="95.0647" y="195.921" width="6.59047" height="6.59047" fill="#E76001"/>
<rect x="134.271" y="142.644" width="6.59047" height="6.59047" fill="#E76001"/>
<rect x="173.159" y="173.555" width="6.59047" height="6.59047" fill="#E76001"/>
<rect x="211.802" y="151.136" width="6.59047" height="6.59047" fill="#E76001"/>
<rect x="250.531" y="119.478" width="6.59047" height="6.59047" fill="#E76001"/>
<rect x="289.943" y="89.4147" width="6.59047" height="6.59047" fill="#E76001"/>
<rect x="328.413" y="70.5156" width="6.59047" height="6.59047" fill="#E76001"/>
<g filter="url(#filter8_d_47_612)">
<rect x="364.628" y="24.4739" width="10.0232" height="10.0232" fill="#E76001"/>
</g>
<rect x="356.556" y="16.4011" width="26.1687" height="26.1687" stroke="#FFF9F5" stroke-opacity="0.51" stroke-width="0.949226" stroke-dasharray="1.9 1.9"/>
<rect x="140.496" y="7.64071" width="49.9753" height="49.9753" rx="6.9531" fill="white" fill-opacity="0.05"/>
<rect x="140.496" y="7.64071" width="49.9753" height="49.9753" rx="6.9531" stroke="#FFF9F5" stroke-width="1.28142"/>
<path d="M161.35 29.4133V35.8434C161.35 36.3508 161.761 36.7619 162.268 36.7619H176.965C177.473 36.7619 177.884 37.1729 177.884 37.6804V44.1104C177.884 44.6179 177.473 45.029 176.965 45.029H162.268C161.761 45.029 161.35 44.6179 161.35 44.1104V37.6804C161.35 37.1729 160.939 36.7619 160.431 36.7619H154.001C153.494 36.7619 153.083 36.3508 153.083 35.8434V29.4133C153.083 28.9058 153.494 28.4948 154.001 28.4948H160.431C160.939 28.4948 161.35 28.0837 161.35 27.5762V21.1462C161.35 20.6387 161.761 20.2277 162.268 20.2277H176.965C177.473 20.2277 177.884 20.6387 177.884 21.1462V27.5762C177.884 28.0837 177.473 28.4948 176.965 28.4948H162.268C161.761 28.4948 161.35 28.9058 161.35 29.4133Z" fill="white"/>
<path opacity="0.57" fill-rule="evenodd" clip-rule="evenodd" d="M153.958 58.0259L174.322 207.714H330.437L175.609 58.1447L153.958 58.0259Z" fill="url(#paint17_linear_47_612)"/>
<line x1="190.408" y1="29.2124" x2="354.468" y2="29.2124" stroke="#FFF9F5" stroke-opacity="0.51" stroke-width="0.949226" stroke-dasharray="1.9 1.9"/>
<defs>
<filter id="filter0_d_47_612" x="328.915" y="74.739" width="4.55628" height="268.97" filterUnits="userSpaceOnUse" color-interpolation-filters="sRGB">
<feFlood flood-opacity="0" result="BackgroundImageFix"/>
<feColorMatrix in="SourceAlpha" type="matrix" values="0 0 0 0 0 0 0 0 0 0 0 0 0 0 0 0 0 0 127 0" result="hardAlpha"/>
<feOffset dx="-0.949226" dy="2.84768"/>
<feGaussianBlur stdDeviation="0.901764"/>
<feComposite in2="hardAlpha" operator="out"/>
<feColorMatrix type="matrix" values="0 0 0 0 0 0 0 0 0 0 0 0 0 0 0 0 0 0 0.17 0"/>
<feBlend mode="normal" in2="BackgroundImageFix" result="effect1_dropShadow_47_612"/>
<feBlend mode="normal" in="SourceGraphic" in2="effect1_dropShadow_47_612" result="shape"/>
</filter>
<filter id="filter1_d_47_612" x="290.05" y="93.5439" width="4.55628" height="250.165" filterUnits="userSpaceOnUse" color-interpolation-filters="sRGB">
<feFlood flood-opacity="0" result="BackgroundImageFix"/>
<feColorMatrix in="SourceAlpha" type="matrix" values="0 0 0 0 0 0 0 0 0 0 0 0 0 0 0 0 0 0 127 0" result="hardAlpha"/>
<feOffset dx="-0.949226" dy="2.84768"/>
<feGaussianBlur stdDeviation="0.901764"/>
<feComposite in2="hardAlpha" operator="out"/>
<feColorMatrix type="matrix" values="0 0 0 0 0 0 0 0 0 0 0 0 0 0 0 0 0 0 0.17 0"/>
<feBlend mode="normal" in2="BackgroundImageFix" result="effect1_dropShadow_47_612"/>
<feBlend mode="normal" in="SourceGraphic" in2="effect1_dropShadow_47_612" result="shape"/>
</filter>
<filter id="filter2_d_47_612" x="250.993" y="125.455" width="4.55628" height="218.254" filterUnits="userSpaceOnUse" color-interpolation-filters="sRGB">
<feFlood flood-opacity="0" result="BackgroundImageFix"/>
<feColorMatrix in="SourceAlpha" type="matrix" values="0 0 0 0 0 0 0 0 0 0 0 0 0 0 0 0 0 0 127 0" result="hardAlpha"/>
<feOffset dx="-0.949226" dy="2.84768"/>
<feGaussianBlur stdDeviation="0.901764"/>
<feComposite in2="hardAlpha" operator="out"/>
<feColorMatrix type="matrix" values="0 0 0 0 0 0 0 0 0 0 0 0 0 0 0 0 0 0 0.17 0"/>
<feBlend mode="normal" in2="BackgroundImageFix" result="effect1_dropShadow_47_612"/>
<feBlend mode="normal" in="SourceGraphic" in2="effect1_dropShadow_47_612" result="shape"/>
</filter>
<filter id="filter3_d_47_612" x="212.124" y="158.384" width="4.55628" height="185.325" filterUnits="userSpaceOnUse" color-interpolation-filters="sRGB">
<feFlood flood-opacity="0" result="BackgroundImageFix"/>
<feColorMatrix in="SourceAlpha" type="matrix" values="0 0 0 0 0 0 0 0 0 0 0 0 0 0 0 0 0 0 127 0" result="hardAlpha"/>
<feOffset dx="-0.949226" dy="2.84768"/>
<feGaussianBlur stdDeviation="0.901764"/>
<feComposite in2="hardAlpha" operator="out"/>
<feColorMatrix type="matrix" values="0 0 0 0 0 0 0 0 0 0 0 0 0 0 0 0 0 0 0.17 0"/>
<feBlend mode="normal" in2="BackgroundImageFix" result="effect1_dropShadow_47_612"/>
<feBlend mode="normal" in="SourceGraphic" in2="effect1_dropShadow_47_612" result="shape"/>
</filter>
<filter id="filter4_d_47_612" x="173.259" y="182.776" width="4.55628" height="160.933" filterUnits="userSpaceOnUse" color-interpolation-filters="sRGB">
<feFlood flood-opacity="0" result="BackgroundImageFix"/>
<feColorMatrix in="SourceAlpha" type="matrix" values="0 0 0 0 0 0 0 0 0 0 0 0 0 0 0 0 0 0 127 0" result="hardAlpha"/>
<feOffset dx="-0.949226" dy="2.84768"/>
<feGaussianBlur stdDeviation="0.901764"/>
<feComposite in2="hardAlpha" operator="out"/>
<feColorMatrix type="matrix" values="0 0 0 0 0 0 0 0 0 0 0 0 0 0 0 0 0 0 0.17 0"/>
<feBlend mode="normal" in2="BackgroundImageFix" result="effect1_dropShadow_47_612"/>
<feBlend mode="normal" in="SourceGraphic" in2="effect1_dropShadow_47_612" result="shape"/>
</filter>
<filter id="filter5_d_47_612" x="134.226" y="148.779" width="4.55628" height="194.93" filterUnits="userSpaceOnUse" color-interpolation-filters="sRGB">
<feFlood flood-opacity="0" result="BackgroundImageFix"/>
<feColorMatrix in="SourceAlpha" type="matrix" values="0 0 0 0 0 0 0 0 0 0 0 0 0 0 0 0 0 0 127 0" result="hardAlpha"/>
<feOffset dx="-0.949226" dy="2.84768"/>
<feGaussianBlur stdDeviation="0.901764"/>
<feComposite in2="hardAlpha" operator="out"/>
<feColorMatrix type="matrix" values="0 0 0 0 0 0 0 0 0 0 0 0 0 0 0 0 0 0 0.17 0"/>
<feBlend mode="normal" in2="BackgroundImageFix" result="effect1_dropShadow_47_612"/>
<feBlend mode="normal" in="SourceGraphic" in2="effect1_dropShadow_47_612" result="shape"/>
</filter>
<filter id="filter6_d_47_612" x="95.5297" y="206.465" width="4.55628" height="137.244" filterUnits="userSpaceOnUse" color-interpolation-filters="sRGB">
<feFlood flood-opacity="0" result="BackgroundImageFix"/>
<feColorMatrix in="SourceAlpha" type="matrix" values="0 0 0 0 0 0 0 0 0 0 0 0 0 0 0 0 0 0 127 0" result="hardAlpha"/>
<feOffset dx="-0.949226" dy="2.84768"/>
<feGaussianBlur stdDeviation="0.901764"/>
<feComposite in2="hardAlpha" operator="out"/>
<feColorMatrix type="matrix" values="0 0 0 0 0 0 0 0 0 0 0 0 0 0 0 0 0 0 0.17 0"/>
<feBlend mode="normal" in2="BackgroundImageFix" result="effect1_dropShadow_47_612"/>
<feBlend mode="normal" in="SourceGraphic" in2="effect1_dropShadow_47_612" result="shape"/>
</filter>
<filter id="filter7_d_47_612" x="56.9439" y="173.653" width="4.55628" height="170.056" filterUnits="userSpaceOnUse" color-interpolation-filters="sRGB">
<feFlood flood-opacity="0" result="BackgroundImageFix"/>
<feColorMatrix in="SourceAlpha" type="matrix" values="0 0 0 0 0 0 0 0 0 0 0 0 0 0 0 0 0 0 127 0" result="hardAlpha"/>
<feOffset dx="-0.949226" dy="2.84768"/>
<feGaussianBlur stdDeviation="0.901764"/>
<feComposite in2="hardAlpha" operator="out"/>
<feColorMatrix type="matrix" values="0 0 0 0 0 0 0 0 0 0 0 0 0 0 0 0 0 0 0.17 0"/>
<feBlend mode="normal" in2="BackgroundImageFix" result="effect1_dropShadow_47_612"/>
<feBlend mode="normal" in="SourceGraphic" in2="effect1_dropShadow_47_612" result="shape"/>
</filter>
<filter id="filter8_d_47_612" x="349.441" y="9.28627" width="40.3984" height="40.3984" filterUnits="userSpaceOnUse" color-interpolation-filters="sRGB">
<feFlood flood-opacity="0" result="BackgroundImageFix"/>
<feColorMatrix in="SourceAlpha" type="matrix" values="0 0 0 0 0 0 0 0 0 0 0 0 0 0 0 0 0 0 127 0" result="hardAlpha"/>
<feMorphology radius="0.949226" operator="dilate" in="SourceAlpha" result="effect1_dropShadow_47_612"/>
<feOffset/>
<feGaussianBlur stdDeviation="7.11919"/>
<feComposite in2="hardAlpha" operator="out"/>
<feColorMatrix type="matrix" values="0 0 0 0 0.905882 0 0 0 0 0.372549 0 0 0 0 0 0 0 0 0.6 0"/>
<feBlend mode="normal" in2="BackgroundImageFix" result="effect1_dropShadow_47_612"/>
<feBlend mode="normal" in="SourceGraphic" in2="effect1_dropShadow_47_612" result="shape"/>
</filter>
<linearGradient id="paint0_linear_47_612" x1="319.115" y1="138.943" x2="315.57" y2="356.021" gradientUnits="userSpaceOnUse">
<stop stop-color="#666666"/>
<stop offset="1" stop-color="#292929"/>
</linearGradient>
<linearGradient id="paint1_linear_47_612" x1="319.115" y1="138.943" x2="315.57" y2="356.021" gradientUnits="userSpaceOnUse">
<stop stop-color="#666666"/>
<stop offset="1" stop-color="#292929"/>
</linearGradient>
<linearGradient id="paint2_linear_47_612" x1="319.115" y1="138.943" x2="315.57" y2="356.021" gradientUnits="userSpaceOnUse">
<stop stop-color="#666666"/>
<stop offset="1" stop-color="#292929"/>
</linearGradient>
<linearGradient id="paint3_linear_47_612" x1="319.115" y1="138.943" x2="315.57" y2="356.021" gradientUnits="userSpaceOnUse">
<stop stop-color="#666666"/>
<stop offset="1" stop-color="#292929"/>
</linearGradient>
<linearGradient id="paint4_linear_47_612" x1="319.115" y1="138.943" x2="315.57" y2="356.021" gradientUnits="userSpaceOnUse">
<stop stop-color="#666666"/>
<stop offset="1" stop-color="#292929"/>
</linearGradient>
<linearGradient id="paint5_linear_47_612" x1="319.115" y1="138.943" x2="315.57" y2="356.021" gradientUnits="userSpaceOnUse">
<stop stop-color="#666666"/>
<stop offset="1" stop-color="#292929"/>
</linearGradient>
<linearGradient id="paint6_linear_47_612" x1="319.115" y1="138.943" x2="315.57" y2="356.021" gradientUnits="userSpaceOnUse">
<stop stop-color="#666666"/>
<stop offset="1" stop-color="#292929"/>
</linearGradient>
<linearGradient id="paint7_linear_47_612" x1="319.115" y1="138.943" x2="315.57" y2="356.021" gradientUnits="userSpaceOnUse">
<stop stop-color="#666666"/>
<stop offset="1" stop-color="#292929"/>
</linearGradient>
<linearGradient id="paint8_linear_47_612" x1="319.115" y1="138.943" x2="315.57" y2="356.021" gradientUnits="userSpaceOnUse">
<stop stop-color="#666666"/>
<stop offset="1" stop-color="#292929"/>
</linearGradient>
<linearGradient id="paint9_linear_47_612" x1="332.142" y1="74.739" x2="332.142" y2="339.058" gradientUnits="userSpaceOnUse">
<stop stop-color="#FFF9F5"/>
<stop offset="1" stop-color="#FFF9F5" stop-opacity="0"/>
</linearGradient>
<linearGradient id="paint10_linear_47_612" x1="293.278" y1="93.5439" x2="293.278" y2="339.058" gradientUnits="userSpaceOnUse">
<stop stop-color="#FFF9F5"/>
<stop offset="1" stop-color="#FFF9F5" stop-opacity="0"/>
</linearGradient>
<linearGradient id="paint11_linear_47_612" x1="254.221" y1="125.455" x2="254.221" y2="339.058" gradientUnits="userSpaceOnUse">
<stop stop-color="#FFF9F5"/>
<stop offset="1" stop-color="#FFF9F5" stop-opacity="0"/>
</linearGradient>
<linearGradient id="paint12_linear_47_612" x1="215.351" y1="158.384" x2="215.351" y2="339.058" gradientUnits="userSpaceOnUse">
<stop stop-color="#FFF9F5"/>
<stop offset="1" stop-color="#FFF9F5" stop-opacity="0"/>
</linearGradient>
<linearGradient id="paint13_linear_47_612" x1="176.486" y1="182.776" x2="176.486" y2="339.058" gradientUnits="userSpaceOnUse">
<stop stop-color="#FFF9F5"/>
<stop offset="1" stop-color="#FFF9F5" stop-opacity="0"/>
</linearGradient>
<linearGradient id="paint14_linear_47_612" x1="137.454" y1="148.779" x2="137.454" y2="339.058" gradientUnits="userSpaceOnUse">
<stop stop-color="#FFF9F5"/>
<stop offset="1" stop-color="#FFF9F5" stop-opacity="0"/>
</linearGradient>
<linearGradient id="paint15_linear_47_612" x1="98.7571" y1="206.465" x2="98.7571" y2="339.058" gradientUnits="userSpaceOnUse">
<stop stop-color="#FFF9F5"/>
<stop offset="1" stop-color="#FFF9F5" stop-opacity="0"/>
</linearGradient>
<linearGradient id="paint16_linear_47_612" x1="60.1713" y1="173.653" x2="60.1713" y2="339.058" gradientUnits="userSpaceOnUse">
<stop stop-color="#FFF9F5"/>
<stop offset="1" stop-color="#FFF9F5" stop-opacity="0"/>
</linearGradient>
<linearGradient id="paint17_linear_47_612" x1="167.004" y1="75.7224" x2="167.004" y2="217.278" gradientUnits="userSpaceOnUse">
<stop stop-color="#FFF9F5"/>
<stop offset="1" stop-color="#FFF9F5" stop-opacity="0"/>
</linearGradient>
</defs>
</svg>
