<svg width="28" height="28" viewBox="0 0 28 28" fill="none" xmlns="http://www.w3.org/2000/svg">
<path d="M9.33322 10.3704V17.6297C9.33322 18.2026 9.79728 18.6667 10.3702 18.6667H26.9626C27.5356 18.6667 27.9997 19.1308 27.9997 19.7037V26.963C27.9997 27.536 27.5356 28 26.9626 28H10.3702C9.79728 28 9.33322 27.536 9.33322 26.963V19.7037C9.33322 19.1308 8.86915 18.6667 8.29619 18.6667H1.03702C0.464068 18.6667 0 18.2026 0 17.6297V10.3704C0 9.79741 0.464068 9.33334 1.03702 9.33334H8.29619C8.86915 9.33334 9.33322 8.86926 9.33322 8.2963V1.03704C9.33322 0.464074 9.79728 0 10.3702 0H26.9626C27.5356 0 27.9997 0.464074 27.9997 1.03704V8.2963C27.9997 8.86926 27.5356 9.33334 26.9626 9.33334H10.3702C9.79728 9.33334 9.33322 9.79741 9.33322 10.3704Z" fill="white"/>
</svg>
